<?xml version="1.0" encoding="utf-8"?>
<!-- Generator: Adobe Illustrator 24.0.1, SVG Export Plug-In . SVG Version: 6.00 Build 0)  -->
<svg version="1.1" id="Camada_1" xmlns="http://www.w3.org/2000/svg" xmlns:xlink="http://www.w3.org/1999/xlink" x="0px" y="0px"
	 viewBox="0 0 280 65" style="enable-background:new 0 0 280 65;" xml:space="preserve">
<style type="text/css">
	.st0{fill:none;stroke:#FF0000;stroke-width:5;stroke-miterlimit:10;}
	.st1{fill:#FFFFFF;}
	.st2{fill:#FF0000;}
</style>
<circle class="st0" cx="156.94" cy="33.74" r="21.02"/>
<path class="st1" d="M150.26,23.74l0.3,19.78c0.01,0.67,0.74,1.08,1.31,0.74l16.84-9.97c0.57-0.34,0.57-1.17-0.01-1.5l-17.14-9.82
	C150.97,22.64,150.25,23.07,150.26,23.74z"/>
<g>
	<path class="st1" d="M41.83,47.54h-6.54l-1.9-6.23h-9.47l-1.88,6.23h-6.5l9.7-28.01h7.12L41.83,47.54z M32.02,36.46l-2.86-9.41
		c-0.21-0.7-0.36-1.54-0.45-2.52h-0.15c-0.06,0.82-0.22,1.63-0.46,2.44l-2.9,9.49H32.02z"/>
	<path class="st1" d="M75.51,47.54h-5.93V30.78c0-1.81,0.07-3.81,0.22-6h-0.15c-0.31,1.72-0.59,2.96-0.84,3.71l-6.24,19.04h-4.9
		l-6.35-18.85c-0.17-0.51-0.45-1.81-0.84-3.91h-0.17c0.16,2.76,0.24,5.18,0.24,7.27v15.49h-5.41V19.53h8.79l5.44,16.6
		c0.43,1.33,0.75,2.66,0.95,4h0.11c0.33-1.55,0.69-2.9,1.06-4.04l5.44-16.56h8.56V47.54z"/>
	<path class="st1" d="M104.99,47.54h-6.54l-1.9-6.23h-9.47l-1.88,6.23h-6.5l9.7-28.01h7.12L104.99,47.54z M95.18,36.46l-2.86-9.41
		c-0.21-0.7-0.36-1.54-0.45-2.52h-0.15c-0.06,0.82-0.22,1.63-0.46,2.44l-2.9,9.49H95.18z"/>
	<path class="st1" d="M128.59,47.54h-21.46V43.9l13.66-19.24h-12.67v-5.14h20.44v3.53l-13.36,19.35h13.4V47.54z"/>
</g>
<g>
	<path class="st2" d="M205.35,24.51h-11.24v7.13h10.33v5.31h-10.33v11.29h-7.17V19.18h18.41V24.51z"/>
	<path class="st2" d="M229.56,48.24h-18.96V19.18h7.17v23.75h11.79V48.24z"/>
	<path class="st2" d="M241.02,48.24h-7.17V19.18h7.17V48.24z"/>
	<path class="st2" d="M274.26,48.24h-8.5l-5.48-9.46c-0.21-0.35-0.42-1-0.64-1.95h-0.09c-0.1,0.45-0.35,1.12-0.73,2.03l-5.51,9.38
		h-8.55l10.15-14.53l-9.28-14.53h8.73l4.55,8.71c0.36,0.69,0.67,1.51,0.95,2.45h0.09c0.18-0.57,0.51-1.41,1-2.53l5.06-8.63h7.99
		l-9.55,14.41L274.26,48.24z"/>
</g>
</svg>
