<?xml version="1.0" encoding="utf-8"?>
<!-- Generator: Adobe Illustrator 25.2.1, SVG Export Plug-In . SVG Version: 6.00 Build 0)  -->
<svg version="1.1" id="Camada_1" xmlns="http://www.w3.org/2000/svg" xmlns:xlink="http://www.w3.org/1999/xlink" x="0px" y="0px"
	 viewBox="0 0 1920 1080" style="enable-background:new 0 0 1920 1080;" xml:space="preserve">
<style type="text/css">
	.st0{fill:#FFFFFF;}
</style>
<g>
	<path class="st0" d="M838.01,498.56c10.42,3.78,15.48-1.93,20.29-10.44c52.9-93.6,105.31-187.49,159.7-280.23
		c12.89-21.98,17.53-40.15,5.52-63.88c-11.66-23.04,1.34-52.23,26.93-69.76c21.06-14.43,52.49-12.92,70.75,3.39
		c27.47,24.54,34.01,52.72,16.52,83.79c-6.76,12.01-5,20.63,0.92,30.95c34.67,60.47,69.28,120.97,103.73,181.57
		c21.62,38.03,43.07,76.17,64.25,114.44c3.5,6.32,6.03,9.99,14.87,9.26c28.51-2.37,56.86,13.64,67.8,36.51
		c10.29,21.51,2.48,58.07-17.46,77.08c-18.39,17.53-40.32,18.15-63.43,11.06c-28.09-8.62-35.38-31.93-39.66-56.75
		c-1.42-8.24-2.78-17.92,2.58-25.32c11.64-16.04,6.81-29.43-2.19-45.17c-55.01-96.13-108.95-192.88-163.47-289.29
		c-9.4-16.63-32.86-15.71-43.46,2.3c-23.9,40.63-47.06,81.71-70.2,122.79c-33.22,58.96-65.84,118.26-99.53,176.95
		c-5.75,10.02-6.27,17.64-1.14,27.63c12.12,23.62,6.77,51.81-12.78,73.18c-16.91,18.49-42.16,24.8-65.36,16.35
		c-23.65-8.63-45.75-35.51-43.81-59.16C772.45,528.23,791.31,498.84,838.01,498.56z"/>
	<path class="st0" d="M815.05,718.59c-42.67,3.13-85.98-6.56-128.63-20c-10.08-3.18-18.58-3.02-28.6,1.38
		c-32.49,14.25-66,0.75-81.44-31.51c-15.18-31.72-4.34-69,24.5-84.31c33.71-17.9,74.98-9.91,85.84,25.42
		c12.96,42.17,44.57,45.59,76.55,52.62c58.16,12.78,114.56,8.08,168.63-19.14c53.09-26.73,65.46-110.95,21.19-149.64
		c-25.3-22.11-24.78-21.85-9.1-52.46c8.05-15.73,14.67-19.9,32.59-9.75c46.73,26.44,74.92,65.25,77.02,117.67
		c1.75,43.74-16.34,83.54-50.12,112.77C950.33,707.64,886.2,721.21,815.05,718.59z"/>
	<path class="st0" d="M714.25,254.05c-2.54,38.29,21.07,59.97,49.04,78.55c34.53,22.95,73.44,36.85,111.81,51.5
		c14.96,5.71,18.63,12.54,10.48,26.04c-2.04,3.38-2.86,7.47-4.78,10.94c-13.44,24.27-14.09,24.12-39.82,13.25
		c-29.36-12.41-59.86-22.38-88.4-36.38c-50.1-24.57-92.35-57.61-105.17-116.19c-12.66-57.86,16.4-115.99,70.33-142.03
		c56.32-27.19,115.55-31.31,176.79-24.28c29.76,3.42,58.72,9.06,85.88,21.3c26.51,11.95,32.21,23.26,30.35,49.77
		c-1.02,14.56-8.51,19.03-21.35,14.35c-12.45-4.54-24.64-9.95-36.54-15.79c-52.1-25.57-106.44-31.3-162.66-17.96
		C748.17,177.08,709.7,213.8,714.25,254.05z"/>
	<path class="st0" d="M586.19,941.71c-30.26,23.14-44.35,25.49-65.99,12.01c-19.52-12.16-28.9-38.82-23.65-67.2
		c7.37-39.85,33.94-59.43,68.25-50.83c5.46,1.37,9.9,3.44,13.67,7.38c4.64,4.85,7.7,6.41,10.39-2.22c1.99-6.4,8.65-5.16,13.72-3.32
		c5.49,1.99,3.84,6.78,4.38,11.47c4.29,37.34,0.16,74.54-0.58,111.8c-0.43,21.62-10.21,38.27-28.05,47.06
		c-20,9.85-42.25,11.21-63.17-0.91c-4.36-2.52-8.93-5.99-6.44-10.7c2.93-5.53,8.16-1.12,12.34,0.19
		C563.83,1009.8,590.21,988.49,586.19,941.71z M587.94,894.28c0.29-25.72-5.15-35.54-22.65-40.94c-24.34-7.51-46.2,5.96-48.53,34.54
		c-3.22,39.51,10.9,60.19,41.35,55.66C577.7,940.63,587.61,924.19,587.94,894.28z"/>
	<path class="st0" d="M406.97,788.34c8.68-1.07,11.48,5.44,13.85,11.64c18.17,47.61,36.19,95.27,54.05,142.99
		c1.65,4.42,6.5,10.47-0.94,13.65c-6.82,2.91-13.09,0.21-17.02-6.42c-1-1.69-1.19-3.86-2.19-5.55
		c-6.27-10.62-3.56-28.66-16.66-32.24c-20.44-5.59-42.34-3.14-63.56-0.9c-7.02,0.74-8.47,7.77-10.61,13.28
		c-3.36,8.65-6.23,17.51-9.84,26.06c-3.35,7.94-10.39,8.14-16.86,5.39c-7.59-3.23-2.75-9.09-1.09-13.58
		c17.28-46.58,34.66-93.12,52.23-139.59C391.48,794.75,395.83,787.08,406.97,788.34z M406.03,817.26c-3,5.64-4.56,7.83-5.4,10.28
		c-3.69,10.65-7.21,21.36-10.73,32.07c-11.45,34.8-11.46,34.25,24.68,33.13c13.22-0.41,16.87-5.28,12.79-16.9
		C420.81,857.18,413.85,838.66,406.03,817.26z"/>
	<path class="st0" d="M1586.88,948.53c0.69,8.45-3.81,9.07-8.88,8.83c-7.2-0.34-10.19-5.52-12.42-11.26
		c-4.72-12.16-5.38-30.84-18.17-33.37c-21.11-4.16-43.73-2.5-65.49-0.65c-9.77,0.83-7.41,14.27-11.83,21.19
		c-5.64,8.84-2.75,29.5-19.85,23.17c-16.3-6.03-1.09-19.46,1.79-27.84c14.99-43.73,32.13-86.73,47.83-130.22
		c2.82-7.8,6.87-10.08,14.4-10.37c8.89-0.35,13.49,4.18,16.32,11.67c10.99,29.06,21.98,58.12,32.92,87.2
		c6.76,17.98,13.4,36,20.14,53.98C1584.81,943.93,1586.2,946.91,1586.88,948.53z M1514.79,814.92
		c-5.99,15.51-10.53,26.49-14.5,37.67c-14.83,41.81-13.07,43.91,32.09,39.37c0.66-0.07,1.33-0.01,2-0.01
		c7.4-0.04,9.47-3.54,6.8-10.27C1532.89,860.75,1524.63,839.81,1514.79,814.92z"/>
	<path class="st0" d="M1328.28,785.59c9.94,1.24,18.48,2.33,27.02,3.37c7.68,0.94,10.19,6.6,9.63,12.81
		c-0.94,10.25-8.5,5.89-13.6,4.49c-14.41-3.94-28.45-5.55-42.91,0.34c-19.79,8.07-23.19,24.28-8.83,40.65
		c9.3,10.6,22.69,13.45,33.84,20.39c17.82,11.1,37.61,20.91,37.76,46.54c0.12,19.97-10.86,36.21-30.03,41.72
		c-20.17,5.8-40.41,5.35-60.61-1.27c-8.28-2.71-13.52-6.89-10.76-15.65c3.61-11.45,10.67-2.6,16.02-1.52
		c13.49,2.72,26.14,7.87,40.92,4.37c12.39-2.93,20.76-7.35,23.85-20.14c3.22-13.31-4.44-21.99-13.4-28.71
		c-9.48-7.11-20.63-12.03-31.09-17.83c-28.6-15.84-40.35-34.29-34.91-54.94C1276.96,798.31,1297.39,786.21,1328.28,785.59z"/>
	<path class="st0" d="M694.45,835.89c31.68-0.02,53.12,23.15,51.65,55.13c-0.48,10.49-6.98,11.49-14.84,11.52
		c-19.34,0.08-38.68,0.53-58.01,0.01c-14.17-0.38-15.61,5.72-11.22,17.22c7.26,19,24.78,27.78,48.83,23.49
		c4.55-0.81,8.9-2.7,13.43-3.72c4.1-0.92,9.4-5.3,11.88,1.34c1.72,4.63-1.18,9.64-5.38,11.8c-36.09,18.6-80.45,7.31-88.38-34.21
		c-3.15-16.48-5.27-32.74,1.52-48.97C654.39,844.54,667.06,835.91,694.45,835.89z M692.49,888.71c9.55-6.15,29.6,9.58,30.17-13.34
		c0.38-15.23-11.91-22.9-26.82-23.32c-14.49-0.41-34.59,15.07-32.64,26.21C666.47,897.01,682.42,884.53,692.49,888.71z"/>
	<path class="st0" d="M1091.47,860.26c-5.28-9.88-2.27-15.96,5.54-19.33c18.81-8.11,38.06-11.31,57.09-0.77
		c17.58,9.74,17.05,26.53,16.64,43.54c-0.48,19.9,0.14,39.82,0.02,59.73c-0.03,5.27-0.41,11.07-6.94,12.88
		c-5.28,1.46-8.38-1.06-10.9-5.97c-5.98-11.62-10.22-1.81-14.58,1.78c-14.05,11.56-30.17,10.82-44.56,3.64
		c-13.82-6.9-20.49-20.19-17.52-36.72c3.14-17.49,15.98-25.14,31.03-29.78c8.8-2.71,18.2-3.55,27.35-5.12
		c6.76-1.16,16.41,1.16,15.53-10.24c-0.83-10.83-3.29-21.48-17.27-22.97C1118.07,849.34,1104.13,852.42,1091.47,860.26z
		 M1148.9,913.7c0.5-7.33,2.47-15.12-9.53-15.04c-20.64,0.15-43.06,10.77-42.41,21.92c0.67,11.48,4.13,22.5,19.32,23.17
		C1133.43,944.53,1148.02,931.33,1148.9,913.7z"/>
	<path class="st0" d="M797.67,852.47c17.49-16.57,35.74-27.05,60.03-11.62c19.17,12.18,19.82,31.59,18.85,49.1
		c-0.95,17.15-1.55,34.35-2.23,51.54c-0.27,6.8,1.91,16.21-9.64,15.87c-10.01-0.3-8.38-8.88-8.52-15.01
		c-0.45-19.26,0.11-38.55-0.47-57.81c-0.65-21.68-11.67-34.72-27.9-34.25c-17.88,0.51-32.86,16.17-33.34,35.52
		c-0.48,19.27-0.36,38.55-0.62,57.82c-0.09,6.62,0.7,14.37-9.52,13.79c-8.65-0.5-8-7.43-8.03-13.34
		c-0.13-29.24-0.47-58.49,0.13-87.72c0.13-6.3-4.03-16.17,6.24-18.39C792.28,835.89,791.73,847.48,797.67,852.47z"/>
	<path class="st0" d="M968.64,943.74c1.04-0.16,6.27-0.92,11.48-1.79c4.55-0.76,10.33-6.73,13.19,0.78
		c2.87,7.55-2.26,12.79-9.26,15.11c-22.53,7.45-43.53,4.01-61.28-11.75c-18.17-16.13-23.31-53.09-12.14-78.16
		c9.16-20.55,38.28-36.53,62.46-34.14c3.28,0.32,6.47,1.46,9.72,2.17c6.5,1.42,11.81,4.29,9.64,12.03
		c-1.97,7.03-7.39,5.96-12.96,4.22c-17.06-5.33-33.28-0.93-43.18,12.36c-12.49,16.75-18.85,36.74-7.12,57.54
		C936.84,935.71,947.71,944.54,968.64,943.74z"/>
	<path class="st0" d="M1045.8,898.64c0,15.2,0.25,30.41-0.11,45.61c-0.16,6.77-1.53,13.38-10.7,13.76
		c-9.91,0.41-10.23-6.6-10.3-13.32c-0.3-30.45-0.49-60.9-0.46-91.35c0.01-7.58,1.68-15.62,11.03-16.08
		c10.99-0.55,9.82,9.08,10.07,15.82c0.56,15.17,0.18,30.37,0.18,45.56C1045.61,898.64,1045.7,898.64,1045.8,898.64z"/>
</g>
</svg>
